<svg width="32" height="32" fill="none" xmlns="http://www.w3.org/2000/svg"><path d="M16 20a4 4 0 100-8 4 4 0 000 8z" stroke="#fff" stroke-width="1.5" stroke-linecap="round" stroke-linejoin="round"/><path d="M25.866 20a2.201 2.201 0 00.44 2.427l.08.08a2.667 2.667 0 01-1.886 4.555 2.666 2.666 0 01-1.887-.782l-.08-.08a2.2 2.2 0 00-2.427-.44 2.2 2.2 0 00-1.333 2.013V28a2.667 2.667 0 11-5.333 0v-.12A2.2 2.2 0 0012 25.867a2.2 2.2 0 00-2.427.44l-.08.08a2.667 2.667 0 11-3.773-3.774l.08-.08a2.2 2.2 0 00.44-2.426 2.2 2.2 0 00-2.014-1.334H4a2.667 2.667 0 010-5.333h.12A2.2 2.2 0 006.133 12a2.2 2.2 0 00-.44-2.427l-.08-.08A2.667 2.667 0 017.5 4.938a2.667 2.667 0 011.886.782l.08.08a2.2 2.2 0 002.427.44H12a2.2 2.2 0 001.333-2.013V4a2.667 2.667 0 015.333 0v.12A2.2 2.2 0 0020 6.133a2.2 2.2 0 002.426-.44l.08-.08a2.668 2.668 0 113.774 3.774l-.08.08a2.2 2.2 0 00-.44 2.426V12a2.2 2.2 0 002.013 1.333H28a2.667 2.667 0 110 5.334h-.12A2.2 2.2 0 0025.866 20z" stroke="#fff" stroke-width="1.5" stroke-linecap="round" stroke-linejoin="round"/></svg>