<svg width="32" height="32" viewBox="0 0 32 32" fill="none" xmlns="http://www.w3.org/2000/svg">
<path d="M15.9997 20C18.2088 20 19.9997 18.2092 19.9997 16C19.9997 13.7909 18.2088 12 15.9997 12C13.7905 12 11.9997 13.7909 11.9997 16C11.9997 18.2092 13.7905 20 15.9997 20Z" stroke="white" stroke-width="1.5" stroke-linecap="round" stroke-linejoin="round"/>
<path d="M25.8663 20C25.6889 20.4022 25.6359 20.8483 25.7143 21.2808C25.7928 21.7134 25.999 22.1125 26.3063 22.4267L26.3863 22.5067C26.6343 22.7544 26.831 23.0485 26.9652 23.3722C27.0994 23.6959 27.1684 24.0429 27.1684 24.3934C27.1684 24.7438 27.0994 25.0908 26.9652 25.4145C26.831 25.7383 26.6343 26.0324 26.3863 26.28C26.1387 26.528 25.8446 26.7247 25.5208 26.8589C25.1971 26.9931 24.8501 27.0621 24.4997 27.0621C24.1492 27.0621 23.8022 26.9931 23.4785 26.8589C23.1548 26.7247 22.8607 26.528 22.613 26.28L22.533 26.2C22.2188 25.8927 21.8197 25.6865 21.3871 25.608C20.9546 25.5296 20.5085 25.5826 20.1063 25.76C19.712 25.9291 19.3757 26.2097 19.1388 26.5674C18.9018 26.9251 18.7747 27.3443 18.773 27.7734V28C18.773 28.7073 18.4921 29.3856 17.992 29.8857C17.4919 30.3858 16.8136 30.6667 16.1063 30.6667C15.3991 30.6667 14.7208 30.3858 14.2207 29.8857C13.7206 29.3856 13.4397 28.7073 13.4397 28V27.88C13.4294 27.4387 13.2865 27.0107 13.0297 26.6516C12.7729 26.2926 12.414 26.0191 11.9997 25.8667C11.5975 25.6892 11.1514 25.6363 10.7189 25.7147C10.2864 25.7931 9.88725 25.9993 9.57301 26.3067L9.49301 26.3867C9.24535 26.6346 8.95124 26.8313 8.62751 26.9655C8.30379 27.0997 7.95678 27.1688 7.60634 27.1688C7.2559 27.1688 6.90889 27.0997 6.58517 26.9655C6.26144 26.8313 5.96734 26.6346 5.71967 26.3867C5.47174 26.139 5.27505 25.8449 5.14085 25.5212C5.00665 25.1975 4.93758 24.8505 4.93758 24.5C4.93758 24.1496 5.00665 23.8026 5.14085 23.4789C5.27505 23.1551 5.47174 22.861 5.71967 22.6134L5.79967 22.5334C6.10706 22.2191 6.31326 21.82 6.39168 21.3875C6.47011 20.955 6.41716 20.5089 6.23967 20.1067C6.07066 19.7123 5.79001 19.376 5.43229 19.1391C5.07457 18.9022 4.65539 18.7751 4.22634 18.7734H3.99967C3.29243 18.7734 2.61415 18.4924 2.11406 17.9923C1.61396 17.4922 1.33301 16.814 1.33301 16.1067C1.33301 15.3995 1.61396 14.7212 2.11406 14.2211C2.61415 13.721 3.29243 13.44 3.99967 13.44H4.11967C4.561 13.4297 4.98901 13.2869 5.34807 13.0301C5.70713 12.7732 5.98063 12.4144 6.13301 12C6.31049 11.5979 6.36344 11.1518 6.28501 10.7193C6.20659 10.2867 6.00039 9.88761 5.69301 9.57337L5.61301 9.49337C5.36507 9.24571 5.16838 8.95161 5.03418 8.62788C4.89998 8.30415 4.83091 7.95715 4.83091 7.60671C4.83091 7.25627 4.89998 6.90926 5.03418 6.58553C5.16838 6.2618 5.36507 5.9677 5.61301 5.72004C5.86067 5.4721 6.15477 5.27541 6.4785 5.14121C6.80223 5.00702 7.14923 4.93794 7.49967 4.93794C7.85012 4.93794 8.19712 5.00702 8.52085 5.14121C8.84458 5.27541 9.13868 5.4721 9.38634 5.72004L9.46634 5.80004C9.78058 6.10742 10.1797 6.31362 10.6122 6.39205C11.0447 6.47047 11.4909 6.41753 11.893 6.24004H11.9997C12.394 6.07102 12.7304 5.79038 12.9673 5.43266C13.2042 5.07494 13.3313 4.65576 13.333 4.22671V4.00004C13.333 3.2928 13.614 2.61452 14.1141 2.11442C14.6142 1.61433 15.2924 1.33337 15.9997 1.33337C16.7069 1.33337 17.3852 1.61433 17.8853 2.11442C18.3854 2.61452 18.6663 3.2928 18.6663 4.00004V4.12004C18.6681 4.54909 18.7952 4.96827 19.0321 5.32599C19.269 5.68371 19.6053 5.96436 19.9997 6.13337C20.4018 6.31086 20.8479 6.36381 21.2805 6.28538C21.713 6.20695 22.1121 6.00076 22.4263 5.69337L22.5063 5.61337C22.754 5.36544 23.0481 5.16875 23.3718 5.03455C23.6956 4.90035 24.0426 4.83128 24.393 4.83128C24.7434 4.83128 25.0905 4.90035 25.4142 5.03455C25.7379 5.16875 26.032 5.36544 26.2797 5.61337C26.5276 5.86104 26.7243 6.15514 26.8585 6.47887C26.9927 6.80259 27.0618 7.1496 27.0618 7.50004C27.0618 7.85048 26.9927 8.19749 26.8585 8.52121C26.7243 8.84494 26.5276 9.13904 26.2797 9.38671L26.1997 9.46671C25.8923 9.78095 25.6861 10.1801 25.6077 10.6126C25.5292 11.0451 25.5822 11.4912 25.7597 11.8934V12C25.9287 12.3944 26.2093 12.7307 26.5671 12.9676C26.9248 13.2045 27.344 13.3317 27.773 13.3334H27.9997C28.7069 13.3334 29.3852 13.6143 29.8853 14.1144C30.3854 14.6145 30.6663 15.2928 30.6663 16C30.6663 16.7073 30.3854 17.3856 29.8853 17.8857C29.3852 18.3858 28.7069 18.6667 27.9997 18.6667H27.8797C27.4506 18.6684 27.0314 18.7955 26.6737 19.0324C26.316 19.2694 26.0354 19.6057 25.8663 20Z" stroke="white" stroke-width="1.5" stroke-linecap="round" stroke-linejoin="round"/>
</svg>
