<svg width="29" height="30" viewBox="0 0 29 30" fill="none" xmlns="http://www.w3.org/2000/svg">
<path d="M8.33366 28.3333H4.33366C3.62641 28.3333 2.94814 28.0523 2.44804 27.5522C1.94794 27.0521 1.66699 26.3739 1.66699 25.6666V16.3333C1.66699 15.626 1.94794 14.9478 2.44804 14.4477C2.94814 13.9476 3.62641 13.6666 4.33366 13.6666H8.33366M17.667 11V5.66663C17.667 4.60576 17.2456 3.58834 16.4954 2.8382C15.7453 2.08805 14.7279 1.66663 13.667 1.66663L8.33366 13.6666V28.3333H23.3737C24.0168 28.3406 24.6408 28.1152 25.1309 27.6986C25.6209 27.2821 25.9439 26.7025 26.0403 26.0666L27.8803 14.0666C27.9383 13.6844 27.9126 13.2942 27.8048 12.923C27.697 12.5517 27.5098 12.2084 27.2561 11.9166C27.0025 11.6249 26.6884 11.3919 26.3358 11.2336C25.9831 11.0753 25.6002 10.9956 25.2137 11H17.667Z" stroke="white" stroke-width="1.5" stroke-linecap="round" stroke-linejoin="round"/>
</svg>
