<svg width="30" height="22" viewBox="0 0 30 22" fill="none" xmlns="http://www.w3.org/2000/svg">
<path d="M20.6537 5.3467C21.3976 6.08968 21.9876 6.97199 22.3902 7.94317C22.7928 8.91436 23 9.95537 23 11.0067C23 12.058 22.7928 13.099 22.3902 14.0702C21.9876 15.0414 21.3976 15.9237 20.6537 16.6667M9.34708 16.6534C8.60326 15.9104 8.01319 15.0281 7.6106 14.0569C7.208 13.0857 7.00078 12.0447 7.00078 10.9934C7.00078 9.94204 7.208 8.90103 7.6106 7.92984C8.01319 6.95866 8.60326 6.07635 9.34708 5.33336M24.4271 1.57336C26.9267 4.07373 28.3309 7.46451 28.3309 11C28.3309 14.5356 26.9267 17.9263 24.4271 20.4267M5.57374 20.4267C3.07413 17.9263 1.66992 14.5356 1.66992 11C1.66992 7.46451 3.07413 4.07373 5.57374 1.57336M17.6671 11C17.6671 12.4728 16.4732 13.6667 15.0004 13.6667C13.5276 13.6667 12.3337 12.4728 12.3337 11C12.3337 9.52727 13.5276 8.33336 15.0004 8.33336C16.4732 8.33336 17.6671 9.52727 17.6671 11Z" stroke="white" stroke-width="1.5" stroke-linecap="round" stroke-linejoin="round"/>
</svg>
